<?xml version="1.0" encoding="utf-8"?><!DOCTYPE svg PUBLIC "-//W3C//DTD SVG 1.1//EN" "http://www.w3.org/Graphics/SVG/1.1/DTD/svg11.dtd"><svg version="1.1" xmlns="http://www.w3.org/2000/svg" xmlns:xlink="http://www.w3.org/1999/xlink" x="0px" y="0px" viewBox="0 0 100 77.433" enable-background="new 0 0 100 77.433" xml:space="preserve"><g><path fill="#010101" d="M27.957,37.612C16.815,25.559,9.62,13.275,8.645,5.764L0,0c0.117,0.078-1.111,8.063,8.608,14.746
		L0.15,9.094c0.117,0.079-1.111,8.063,8.607,14.746l-8.683-5.801c0.118,0.079-1.157,8.216,8.833,14.933l-8.87-5.951
		c0.118,0.079-1.16,8.244,8.907,14.97l3.031,2.021c8.938,3.497,21.479,13.597,33.196,27.433c1.697,2.004,3.297,3.989,4.828,5.988
		l-6.624-25.749C38.365,47.914,33.082,43.156,27.957,37.612z"></path><path fill="#010101" d="M100,0l-8.646,5.764c-0.974,7.511-8.17,19.795-19.312,31.849c-5.124,5.543-10.408,10.301-15.419,14.072
		L50,77.433c1.529-1.999,3.131-3.984,4.828-5.988c11.716-13.836,24.258-23.936,33.196-27.433l3.031-2.021
		c10.067-6.726,8.789-14.891,8.907-14.97l-8.87,5.951c9.99-6.717,8.714-14.854,8.832-14.933l-8.683,5.801
		c9.719-6.683,8.491-14.667,8.608-14.746l-8.458,5.651C101.111,8.063,99.883,0.078,100,0z"></path><path fill="#010101" d="M42.777,49.364L36.34,24.289l-10.18-6.812L11.527,7.709c0.659,6.72,7.232,17.996,17.478,29.08
		C33.571,41.729,38.305,45.979,42.777,49.364z"></path><path fill="#010101" d="M70.995,36.789C81.24,25.706,87.814,14.43,88.473,7.709L73.84,17.478l-10.18,6.812l-6.438,25.075
		C61.695,45.979,66.43,41.729,70.995,36.789z"></path><path fill="#010101" d="M12.201,47.081c0.555,3.006,2.437,7.729,8.683,11.901l13.099,8.72l13.623,9.132
		c-1.147-1.47-2.31-2.944-3.556-4.416C32.646,58.952,20.309,49.429,12.201,47.081z"></path><path fill="#010101" d="M55.95,72.417c-1.246,1.472-2.409,2.946-3.555,4.416l13.622-9.132l13.1-8.72
		c6.245-4.173,8.128-8.896,8.683-11.901C79.692,49.429,67.354,58.952,55.95,72.417z"></path></g></svg>