<svg xmlns="http://www.w3.org/2000/svg" xmlns:xlink="http://www.w3.org/1999/xlink" version="1.1" x="0px" y="0px" viewBox="0 0 100 100" style="enable-background:new 0 0 100 100;" xml:space="preserve"><g><path d="M50,0.002C22.388,0.002,0,22.383,0,50c0,27.611,22.388,49.998,50,49.998c27.617,0,50-22.387,50-49.998   C100,22.383,77.617,0.002,50,0.002z M79.167,74.081l-24.206,8.392c-1.348,0.457-3.066,1.193-4.961,1.186   c-1.907,0.008-3.47-0.678-4.968-1.186l-24.193-8.384V25.825h58.328V74.081z"/><rect x="42.852" y="35.941" width="14.44" height="3.249"/><rect x="62.097" y="35.941" width="14.439" height="3.249"/><rect x="23.47" y="35.941" width="14.44" height="3.249"/></g></svg>