<svg xmlns="http://www.w3.org/2000/svg" version="1.1" x="0px" y="0px" viewBox="0 0 5 5.001" enable-background="new 0 0 5 5.001" xml:space="preserve"><path fill="#000000" d="M3.024 2.244c0-0.008-0.193-0.335-0.248-0.385 0 0.004-0.004 0.004-0.004 0.004C2.747 1.934 2.724 2.004 2.694 2.07c0 0 0 0.005-0.004 0.005C2.673 2.174 2.636 2.253 2.575 2.327 2.571 2.335 2.571 2.344 2.567 2.352c0.045 0.062 0.094 0.12 0.16 0.161 0.057 0.042 0.123 0.083 0.186 0.12C3.028 2.67 3.136 2.724 3.239 2.777 3.313 2.819 3.265 2.918 3.19 2.91 3.024 2.885 2.876 2.827 2.72 2.777 2.724 2.782 2.724 2.786 2.728 2.79 2.79 2.835 3.372 3.327 3.323 3.335 3.099 3.372 2.255 2.687 2.087 2.451 2.046 2.397 2.028 2.331 1.999 2.27 1.972 2.22 1.972 2.161 1.954 2.249 1.942 2.331 1.64 2.698 1.661 2.757c0.025 0.062 0.207 0.455 0.133 0.38C1.706 3.051 1.562 2.98 1.442 2.894c-0.033 0.009-0.07 0.005-0.1-0.009 0.004 0.129 0.078 0.491 0 0.446C1.284 3.298 1.028 3.104 0.938 3.055 1.165 3.699 1.78 4.157 2.501 4.157c0.715 0 1.316-0.446 1.553-1.077C3.685 2.877 3.017 2.472 3.024 2.244zM3.521 2.294c-0.016-0.008-0.09-0.008-0.1 0.004 0.084 0.091 0.178 0.178 0.26 0.261C3.821 2.69 3.954 2.823 4.099 2.951c0.025-0.09 0.041-0.183 0.051-0.276C4.021 2.592 3.917 2.451 3.784 2.372 3.698 2.323 3.606 2.344 3.521 2.294zM1.21 2.446c0.055-0.062 0.256-0.074 0.314-0.136 0.1-0.107 0.385-0.41 0.385-0.41s0.17 0.212 0.223 0.282C2.19 2.157 2.243 2.129 2.298 2.1c0.111-0.174 0.479-0.542 0.479-0.542l0.43 0.479c0.014 0 0.285-0.12 0.285-0.12s0.34 0.377 0.451 0.476c0.07 0.062 0.141 0.124 0.215 0.183 0-0.025 0-0.05 0-0.075 0-0.913-0.74-1.657-1.656-1.657 -0.914 0-1.658 0.744-1.658 1.657 0 0.116 0.012 0.228 0.033 0.335C0.983 2.749 1.179 2.438 1.21 2.446z"/></svg>
