<?xml version="1.0" encoding="UTF-8"?><svg width="108" height="40" viewBox="0 0 108 40" xmlns="http://www.w3.org/2000/svg" xmlns:xlink="http://www.w3.org/1999/xlink" xml:space="preserve" version="1.1" baseProfile="full"> <g id="mainlayer" font-size="10" style="font-family: monospace"><rect style="fill:#000" x="0" y="0" width="6" height="10"/><rect style="fill:#000" x="6" y="0" width="6" height="10"/><rect style="fill:#000" x="12" y="0" width="6" height="10"/><rect style="fill:#000" x="18" y="0" width="6" height="10"/><rect style="fill:#000" x="24" y="0" width="6" height="10"/><rect style="fill:#000" x="30" y="0" width="6" height="10"/><rect style="fill:#000" x="36" y="0" width="6" height="10"/><rect style="fill:#000" x="42" y="0" width="6" height="10"/><rect style="fill:#000" x="48" y="0" width="6" height="10"/><rect style="fill:#000" x="54" y="0" width="6" height="10"/><rect style="fill:#000" x="60" y="0" width="6" height="10"/><rect style="fill:#000" x="66" y="0" width="6" height="10"/><rect style="fill:#000" x="72" y="0" width="6" height="10"/><rect style="fill:#000" x="78" y="0" width="6" height="10"/><rect style="fill:#000" x="84" y="0" width="6" height="10"/><rect style="fill:#000" x="90" y="0" width="6" height="10"/><rect style="fill:#000" x="96" y="0" width="6" height="10"/><rect style="fill:#000" x="102" y="0" width="6" height="10"/><rect style="fill:#000" x="0" y="10" width="6" height="10"/><rect style="fill:#000" x="6" y="10" width="6" height="10"/><rect style="fill:#000" x="12" y="10" width="6" height="10"/><rect style="fill:#000" x="18" y="10" width="6" height="10"/><rect style="fill:#000" x="24" y="10" width="6" height="10"/><rect style="fill:#000" x="30" y="10" width="6" height="10"/><rect style="fill:#000" x="36" y="10" width="6" height="10"/><rect style="fill:#000" x="42" y="10" width="6" height="10"/><rect style="fill:#000" x="48" y="10" width="6" height="10"/><rect style="fill:#000" x="54" y="10" width="6" height="10"/><rect style="fill:#000" x="60" y="10" width="6" height="10"/><rect style="fill:#000" x="66" y="10" width="6" height="10"/><rect style="fill:#000" x="72" y="10" width="6" height="10"/><rect style="fill:#000" x="78" y="10" width="6" height="10"/><rect style="fill:#000" x="84" y="10" width="6" height="10"/><rect style="fill:#000" x="90" y="10" width="6" height="10"/><rect style="fill:#000" x="96" y="10" width="6" height="10"/><rect style="fill:#000" x="102" y="10" width="6" height="10"/><rect style="fill:#000" x="0" y="20" width="6" height="10"/><rect style="fill:#000" x="6" y="20" width="6" height="10"/><rect style="fill:#000" x="12" y="20" width="6" height="10"/><rect style="fill:#000" x="18" y="20" width="6" height="10"/><rect style="fill:#000" x="24" y="20" width="6" height="10"/><rect style="fill:#000" x="30" y="20" width="6" height="10"/><rect style="fill:#000" x="36" y="20" width="6" height="10"/><rect style="fill:#000" x="42" y="20" width="6" height="10"/><rect style="fill:#000" x="48" y="20" width="6" height="10"/><rect style="fill:#000" x="54" y="20" width="6" height="10"/><rect style="fill:#000" x="60" y="20" width="6" height="10"/><rect style="fill:#000" x="66" y="20" width="6" height="10"/><rect style="fill:#000" x="72" y="20" width="6" height="10"/><rect style="fill:#000" x="78" y="20" width="6" height="10"/><rect style="fill:#000" x="84" y="20" width="6" height="10"/><rect style="fill:#000" x="90" y="20" width="6" height="10"/><rect style="fill:#000" x="96" y="20" width="6" height="10"/><rect style="fill:#000" x="102" y="20" width="6" height="10"/><rect style="fill:#000" x="0" y="30" width="6" height="10"/><rect style="fill:#000" x="6" y="30" width="6" height="10"/><rect style="fill:#000" x="12" y="30" width="6" height="10"/><rect style="fill:#000" x="18" y="30" width="6" height="10"/><rect style="fill:#000" x="24" y="30" width="6" height="10"/><rect style="fill:#000" x="30" y="30" width="6" height="10"/><rect style="fill:#000" x="36" y="30" width="6" height="10"/><rect style="fill:#000" x="42" y="30" width="6" height="10"/><rect style="fill:#000" x="48" y="30" width="6" height="10"/><rect style="fill:#000" x="54" y="30" width="6" height="10"/><rect style="fill:#000" x="60" y="30" width="6" height="10"/><rect style="fill:#000" x="66" y="30" width="6" height="10"/><rect style="fill:#000" x="72" y="30" width="6" height="10"/><rect style="fill:#000" x="78" y="30" width="6" height="10"/><rect style="fill:#000" x="84" y="30" width="6" height="10"/><rect style="fill:#000" x="90" y="30" width="6" height="10"/><rect style="fill:#000" x="96" y="30" width="6" height="10"/><rect style="fill:#000" x="102" y="30" width="6" height="10"/><text style="fill:#aaa" x="54" y="8">▌</text><text style="fill:#aaa" x="90" y="8">▐</text><text style="fill:#aaa" x="0" y="18">▛</text><text style="fill:#aaa" x="6" y="18">▀</text><text style="fill:#aaa" x="12" y="18">▖</text><text style="fill:#aaa" x="18" y="18">▞</text><text style="fill:#aaa" x="24" y="18">▀</text><text style="fill:#aaa" x="30" y="18">▖</text><text style="fill:#aaa" x="36" y="18">▞</text><text style="fill:#aaa" x="42" y="18">▀</text><text style="fill:#aaa" x="48" y="18">▖</text><text style="fill:#aaa" x="54" y="18">▌</text><text style="fill:#aaa" x="60" y="18">▗</text><text style="fill:#aaa" x="66" y="18">▘</text><text style="fill:#aaa" x="72" y="18">▞</text><text style="fill:#aaa" x="78" y="18">▀</text><text style="fill:#aaa" x="84" y="18">▖</text><text style="fill:#aaa" x="90" y="18">▜</text><text style="fill:#aaa" x="96" y="18">▀</text><text style="fill:#aaa" x="0" y="28">▙</text><text style="fill:#aaa" x="6" y="28">▄</text><text style="fill:#aaa" x="12" y="28">▘</text><text style="fill:#aaa" x="18" y="28">▌</text><text style="fill:#aaa" x="30" y="28">▌</text><text style="fill:#aaa" x="36" y="28">▌</text><text style="fill:#aaa" x="48" y="28">▖</text><text style="fill:#aaa" x="54" y="28">▛</text><text style="fill:#aaa" x="60" y="28">▚</text><text style="fill:#aaa" x="72" y="28">▛</text><text style="fill:#aaa" x="78" y="28">▀</text><text style="fill:#aaa" x="90" y="28">▐</text><text style="fill:#aaa" x="102" y="28">▖</text><text style="fill:#aaa" x="0" y="38">▌</text><text style="fill:#aaa" x="18" y="38">▝</text><text style="fill:#aaa" x="24" y="38">▀</text><text style="fill:#aaa" x="36" y="38">▝</text><text style="fill:#aaa" x="42" y="38">▀</text><text style="fill:#aaa" x="54" y="38">▘</text><text style="fill:#aaa" x="66" y="38">▘</text><text style="fill:#aaa" x="72" y="38">▝</text><text style="fill:#aaa" x="78" y="38">▀</text><text style="fill:#aaa" x="84" y="38">▘</text><text style="fill:#aaa" x="96" y="38">▀</text> </g></svg>
